<?xml version="1.0" encoding="UTF-8"?>
<svg id="Layer_1" xmlns="http://www.w3.org/2000/svg" xmlns:xlink="http://www.w3.org/1999/xlink" version="1.1" viewBox="0 0 1024 1024">
  <!-- Generator: Adobe Illustrator 30.3.0, SVG Export Plug-In . SVG Version: 2.1.3 Build 182)  -->
  <defs>
    <style>
      .st0 {
        fill: url(#linear-gradient2);
      }

      .st1 {
        fill: url(#linear-gradient1);
      }

      .st2 {
        fill: url(#linear-gradient3);
      }

      .st3 {
        fill: url(#linear-gradient4);
      }

      .st4 {
        fill: #060409;
      }

      .st5 {
        fill: #46444b;
      }

      .st6 {
        fill: url(#linear-gradient);
      }

      .st7 {
        fill: #7d7983;
      }

      .st8 {
        fill: #24202e;
      }

      .st9 {
        stroke: #fff;
        stroke-miterlimit: 10;
      }

      .st10 {
        fill: #fefefe;
      }

      .st11 {
        fill: #110f16;
      }
    </style>
    <linearGradient id="linear-gradient" x1="333.8" y1="545.5" x2="349.7" y2="546.9" gradientTransform="translate(0 232)" gradientUnits="userSpaceOnUse">
      <stop offset="0" stop-color="#484053"/>
      <stop offset="1" stop-color="#565c65"/>
    </linearGradient>
    <linearGradient id="linear-gradient1" x1="248.2" y1="-25.5" x2="208.6" y2="-54.9" gradientTransform="translate(0 232)" gradientUnits="userSpaceOnUse">
      <stop offset="0" stop-color="#726d79"/>
      <stop offset="1" stop-color="#88848c"/>
    </linearGradient>
    <linearGradient id="linear-gradient2" x1="830.8" y1="-51.7" x2="842.7" y2="-58.9" gradientTransform="translate(0 232)" gradientUnits="userSpaceOnUse">
      <stop offset="0" stop-color="#000"/>
      <stop offset="1" stop-color="#161522"/>
    </linearGradient>
    <linearGradient id="linear-gradient3" x1="654.2" y1="124.5" x2="702.8" y2="110.7" gradientTransform="translate(0 232)" gradientUnits="userSpaceOnUse">
      <stop offset="0" stop-color="#000"/>
      <stop offset="1" stop-color="#090516"/>
    </linearGradient>
    <linearGradient id="linear-gradient4" x1="716.6" y1="94" x2="772.9" y2="112.5" gradientTransform="translate(0 232)" gradientUnits="userSpaceOnUse">
      <stop offset="0" stop-color="#000"/>
      <stop offset="1" stop-color="#0d091c"/>
    </linearGradient>
  </defs>
  <path d="M0,0h1024v1024H0V0Z"/>
  <path class="st4" d="M613.3,933.8c3.1,0,7.6-.8,10.3,1v1c0,0-.9,1.3-.9,1.3-3,1.2-8.6.5-11.9.5s-5.5.4-8,0c-1.3-.2-1.5-.4-2.3-1.3v-1.1c3-2.2,9.2-1.3,12.8-1.3h0Z"/>
  <path class="st4" d="M791.8,471.8c.3,0,.6.1.8.3,1.8.9,2.3,5.5,2.6,7.5.9,5.9,3.1,24.5,0,28.7-1-.7-1.4-.8-1.6-2-1.1-5.2-.4-11.6-.9-17-.4-4.8-2-10.1-1.8-14.8,0-1,.5-1.7,1-2.5h0v-.2Z"/>
  <path class="st4" d="M537.9,749.5c-.5,4-5.9,6-6.3,10,.7.4.6.5,1.1.3,3.3-1.4,5.3-7.1,9.1-8-8.2,9.2-17.1,18-25.5,27.2-3.8,4.2-14.9,18.1-18.2,20.5-.9.6-1.1.6-2.1.4l-.5-1c.3-1.5.8-2.4,1.7-3.6,4.1-5.6,9.5-10.9,14.2-16.2,8.7-9.9,17.4-20,26.5-29.5h0Z"/>
  <path class="st4" d="M793.1,519.9l1.2.8c.2.6.3.6.3,1.3.3,2.9-1.2,7.3-2,10.2-5.1,20.4-14.1,39-28.6,54.5-.6.6-1.1,1.2-1.7,1.8l-1.8,1.8c-.6.6-1.2,1.1-1.8,1.7-.6.6-1.2,1.1-1.8,1.7-.6.5-1.3,1.1-1.9,1.6-.6.5-1.3,1.1-1.9,1.6-.6.5-1.3,1-2,1.5s-1.3,1-2,1.5-1.4,1-2,1.4c-.7.5-1.4.9-2.1,1.4-.7.4-1.4.9-2.1,1.3s-1.4.9-2.1,1.3-1.4.8-2.2,1.2c-.7.4-1.5.8-2.2,1.2s-1.5.7-2.2,1.1c-.7.4-1.5.7-2.3,1.1-.8.3-1.5.7-2.3,1s-1.5.6-2.3.9c-.8.3-1.5.6-2.3.9-.8.3-1.6.6-2.3.8-.8.3-1.6.5-2.4.8-.8.2-1.6.5-2.4.7-.8.2-1.6.4-2.4.6-.8.2-1.6.4-2.4.6-.8.2-1.6.4-2.4.5-.8.2-1.6.3-2.4.5-.8,0-1.6.3-2.5.4-.8,0-1.6.2-2.5.3-.8,0-1.6.2-2.5.3-.8,0-1.7.2-2.5.2s-1.7,0-2.5.2h-2.5l-.7-.2-.5-.9c.2-1.1,0-1.4,1.3-1.9,2.7-1.2,7-.7,9.9-1,2.5-.3,5-.9,7.4-1.4,14.8-3.3,29.5-10.2,41.3-19.7,12.6-10.1,22.3-23.6,29.1-38.2,3.1-6.6,5.7-13.6,7.3-20.7.9-4,1.4-8.4,2.6-12.3.4-1.4.8-1.5,1.9-2.3h.2Z"/>
  <path class="st4" d="M639.1,933.8c23.8,0,266.9-1.3,270.6.3.7,1.4.5,1.5.2,3.1h-185.8l-54.8.2c-9,0-18.1.4-27.1,0-1.6,0-2.5,0-3.6-1-.2-1.2,0-1.7.6-2.7h-.1Z"/>
  <path class="st4" d="M877.7,540.7l-.6-.6c-2-1.9-10-11.3-10.2-13.9v-.5c3.1-1.6,52.3-3.7,55.8-2.6,1,.3.8.4,1.3,1.2,0,.9,0,1.6-.5,2.4-1.8,4.4-20.3,45.5-21.4,46.8-.4.4-.6.5-1,.7-1.9-.3-2.7-1.9-3.8-3.4-3.6-5.1-7-10.5-10.4-15.8-6,4.6-12.2,10.2-18.6,14.1l-.5-.5c4.6-5.4,15-9.4,18.1-15.3l-.4-.5c-2.9,1.3-5.9,4.6-8.6,6.4,1.7-2.7,5.7-5.3,8.1-7.5-1.1-1.7-2.2-3.3-3.2-5.1-1.1-2.2-2-5-4.2-6h.1Z"/>
  <g>
    <path class="st8" d="M909.9,526.3c-8.7.3-17.3.8-25.9,1.1-4.4.2-9,0-13.4.4,9.3,8.6,15.1,19.4,21.8,30,2.6,3.9,5.2,7.8,7.9,11.7,6.9-14.4,13.6-28.9,20-43.5-3.4,0-6.9,0-10.3.4h0Z"/>
    <polygon class="st8" points="877.7 540.7 877.7 540.7 877.7 540.7 877.7 540.7"/>
    <path class="st8" d="M869,553.3c.6.2,1.4.5,2,.5,2.9.3,8.6-5.3,10.9-7.2-1.1-2.2-2-5-4.2-6,.4.8,1.4,2,1.2,2.9-1,3.9-7.1,6.9-9.9,9.7h0Z"/>
    <path class="st8" d="M876.9,559.3c1.7-2.7,5.7-5.3,8.1-7.5-1.1-1.7-2.2-3.3-3.2-5.1h0c-2.3,1.9-7.9,7.5-10.9,7.2-.6,0-1.4-.3-2-.5l-111.5,91.1c-22.7,18.7-45.2,38.1-68.8,55.6-16.8-20.7-33.2-41.7-50.8-61.7-7.1,6.2-13.4,14.1-19.7,21.1l-43.5,49.1-25.3,27.9c-3.7,4.1-8.6,8.5-11.5,13.1-.5,4-5.9,6-6.3,10,.7.4.6.5,1.1.3,3.3-1.4,5.3-7.1,9.1-8,3.1-2.1,6.2-6.2,8.8-8.9,7.5-7.9,14.9-15.8,22.3-23.8l63.9-67.5c5.7,6.2,10.9,13.2,16.2,19.8,11.4,13.9,22.6,27.9,33.7,42.1,6.9-6.5,15.1-12,22.5-17.8,12.4-9.8,24.6-19.8,37.1-29.5,28.7-22.2,57.2-44.8,85.4-67.6,12.2-9.8,24.8-19,36.6-29.3l-.5-.5c4.6-5.4,15-9.4,18.1-15.3l-.4-.5c-2.9,1.3-5.9,4.6-8.6,6.4v-.2Z"/>
  </g>
  <path class="st10" d="M203.5,931.8c1.3.5,2.1.8,3,1.8-.2,1.6-.9,1.9-2,3.1-1-.4-2.3-1.1-2.9-1.9-.4-.5-.2-.9-.1-1.5l2-1.5h0Z"/>
  <path class="st10" d="M196.5,927.2c1.3.3,2.9.8,3.8,1.7.6.5.4.9.4,1.6l-1.6,1.7c-.4,0-.3.2-.8,0-1.5-.7-2.4-1.7-2.9-3.3l1.1-1.6h0Z"/>
  <path class="st10" d="M190.7,921.3c.8.3,1.9.8,2.5,1.4,1,.9.9,1.2.9,2.4l-1.8,1.7c-.8-.5-1.7-1.1-2.5-1.8-.9-.8-.9-1-.9-2.1l1.6-1.6h.2Z"/>
  <path class="st10" d="M209.6,935.8c1.2.6,2.3,1.2,3.3,2.1,0,1.7-.7,2.3-1.6,3.6-1.2-.6-2.2-1.2-3.2-2.2,0-1.7.6-2.2,1.5-3.6h0Z"/>
  <path class="st10" d="M381,933.2c1.5.3,3.3.4,4.3,1.5,0,1.5-.4,2-1.2,3.3-1.5-.2-3.3-.5-4.3-1.7-.2-1.5.3-1.8,1.1-3.1h.1Z"/>
  <path class="st10" d="M373.8,930.3c1.3.3,2.8.5,3.7,1.6-.2,1.6-1,2.4-1.9,3.7-.5.3-1.2,0-1.7,0-.3-.4-.9-1-1.1-1.5-.7-1.7.2-2.6,1-4h0Z"/>
  <path class="st10" d="M365.5,927.5c1.4.5,2.8,1,4.2,1.5.6,1.4,0,2.3-.5,3.7-1.7-.5-3.6-.9-5-2-.2-1.6.4-1.9,1.2-3.2h0Z"/>
  <path class="st10" d="M356.8,923.9c1,.4,2,.8,3,1.2,1.3.7,1.9,1.1,2.4,2.5-.4.9-.7,1.2-1.6,1.8l-6.8-2.2,2.9-3.3h.1Z"/>
  <path class="st7" d="M259.8,248.8c3.4,2.5,6.4,6.6,9,9.9-2.4-1.1-8-2.8-9.2-5.2-.8-1.6,0-3.1.3-4.7h0Z"/>
  <path class="st11" d="M310.7,525.9c3-3.8,15.5-2.6,18.8-6.4.7-.7.7-3.1.5-4.1-.6-3.1-2.4-11.9-1.6-14.5,0-.2.1-.3.2-.5,1.8,7.2,3.1,19.3,3.3,26.6-1,.9-1.7,1.4-1.8,2.8-.1,1.3,0,2.6,0,3.9-.8-4-1.1-8.3-1.6-12.4-5.9,1.2-11.6,3.4-17.6,4.6h-.2Z"/>
  <path class="st7" d="M262.9,240.9c.1.1.3.2.4.3,2,2.4,13.6,18,13.7,20.2l-.9-.2c-5.1-5.7-10.2-11.2-15.5-16.7.8-1.2,1.6-2.4,2.3-3.6h0Z"/>
  <path class="st10" d="M425.7,363.4c.1,3.9-4.3,13.8-6,17.7-7.3,1.3-15.8,1-23.1.5l-.4-.5.3-.9c4.6-3.2,16.9-1.6,22.5-1.5,2-5.2,4.1-10.4,6.7-15.4h0Z"/>
  <path class="st5" d="M421.8,360.6l.3.4c-.6,4.5-4.2,10.4-6,14.8-4.2.1-8.3,0-12.5,0l-.7-.2v-.7c5.1-4.9,12.2-12.1,18.9-14.2h0Z"/>
  <path class="st10" d="M352.5,366.3c2.8,2.2,15.7,35.3,17.1,40.6-1.3,1-2.8,1.8-4.2,2.7-2.5-4.1-4.1-9.1-5.8-13.5-3.9-9.7-7.5-19.7-11.7-29.2,1-.7,3.4-.5,4.7-.6h-.1Z"/>
  <path class="st10" d="M343.5,890.6c1,1.2.2,7.3.1,9-.5.2-1.1.3-1.6.5-9.1,2.8-26.3,7.8-35.3,3.1-.8-3.3-1.1-6.8-1.6-10.2.7.2,1.4.4,2.1.6,10.5,2.7,26.7,2.5,36.3-3.1h0Z"/>
  <path class="st7" d="M224.8,113.6h1.7l.5.9c-.3,1.2-.7,2.2-1.3,3.2-8.9,14.9-27.4,19.1-43.1,22.8-.7,0-1.3,0-2-.2,2.2-2.9,7.1-5.1,10.1-7.4,12.4-9.3,17.6-16.5,34.1-19.3h0Z"/>
  <path class="st10" d="M337.5,905.6s.1,0,.2,0c1.1,1.3,1.7,10.4,2.1,12.7-2.3,3.5-4.6,6.3-8.8,7.3-4.9,1.2-9.3-.8-13.4-3.2l-7.1-4.6-.2-9.5c9.7.6,17.7-.3,27.1-2.8h0Z"/>
  <path class="st6" d="M342.1,669.7c1.7,8.5,1.6,28,2,37.3.7,17.6.7,35.1,1,52.6.5,27.6.9,55.3.3,82.8-.1,5.6-1.1,11.1-1.2,16.6-.2,8.1,1,20.7-.3,28.1-.8-8.4-.3-17.3-.3-25.8,0-13.9-.2-27.8-.5-41.8l-2-139c.4-2.7,1-5.6.9-8.4,0-.9,0-1.7.2-2.6h0v.2Z"/>
  <path class="st10" d="M145.8,871.7c11.4,6.9,24,11.3,37.4,11.9-1.4,3.2-2.6,6.5-3.8,9.8l-.5,1q-.5.3-1.2.5c-8.7,2.2-26.7-5.7-33.9-10.4.5-4.3,1-8.5,2.1-12.8h-.1Z"/>
  <path class="st7" d="M167.5,152.3c1.4,3.3.9,9.4,1.4,13.1,2.8,21.3,10.2,34.9,25.9,49.3l-5.2-1.6c-2.6-1-5.2-2.2-7.7-3.5-9.3-4.9-14.8-11.6-17.8-21.7-3.4-11.6-2.4-25,3.4-35.6h0Z"/>
  <path class="st10" d="M144.3,889.5c10.9,5.6,20.7,8.9,33,9l-1.1,6.3c-2.4,1.2-4.6,2.9-6.9,4.3-4,2.6-8.1,4.9-13.1,4.3-6.8-.8-11.4-6.7-15.3-11.8,1.5-4,2.4-8.1,3.3-12.3h0v.2Z"/>
  <path class="st10" d="M299.5,313.3c4.4,2,29.7,23.1,35.1,27.8-2.2,5.3-4.6,10.6-6.6,16-.9,2.6-1.8,5.3-3.8,7.3l-.7-.7c.1-1-.7-2.3-1.1-3.3l-.8.2.2-.3c-7.1-15.8-14.6-31.5-22.3-47.1h0Z"/>
  <path class="st7" d="M231.2,113.4c6.9,0,13.2,1.1,19.2,4.6-3,3.5-6.1,7.2-9.5,10.3-11.1,9.9-26.5,13.7-40.8,15.6-6.8.7-13.3.9-20.1-.5,11.1-1.3,22.8-4.1,32.8-9.3,9.1-4.8,15.4-10.8,18.4-20.8h0Z"/>
  <path class="st1" d="M241.1,171.4l.4.2c1.6,3.3,1,16.1,1,20.4-2.9-1.9-6-3.6-9.5-4.1s-6.9.3-9.7,2.5c-2.5,2-3.9,5-4.2,8.1-.4,4,1.1,8,3.6,11,5.2,6.3,13.2,7.1,20.8,7.7-3.5,1.8-7.1,3.2-10.9,4.5-1.5.4-2.6.7-4.1,0-9.4-4.4-20.9-32.4-24.1-42.2,13.1.2,24.8-2.1,36.6-8.1h.1Z"/>
  <path class="st10" d="M120.1,937.2c32.1,20.6,71.3,25.7,108.5,22.3,3.6-.3,18.4-2.9,20.9-2,.7.2.7.7,1,1.3-.3,1.7-.9,2.2-2.1,3.3-12.9,6.2-38.3,5.7-52.4,4.4-2.8-.3-5.6-.6-8.4-1-2.8-.4-5.6-.8-8.3-1.3s-5.5-1.1-8.3-1.7c-2.7-.6-5.5-1.3-8.2-2s-5.4-1.5-8.1-2.3c-2.7-.8-5.4-1.7-8-2.6-2.7-.9-5.3-1.9-7.9-2.9-2.6-1-5.2-2.1-7.8-3.3-3.7-1.6-8.9-3.5-11.5-6.6-.4-1.9,0-3.7.5-5.6h0Z"/>
  <path class="st10" d="M437.3,951.6c1,0,1.4.2,2.2.9.8.8,1.1,1.8,1.1,2.9-.2.2-.4.3-.7.5-4.7,3-13.3,4.1-18.8,5.3-2.4.5-4.8,1-7.2,1.4-2.4.5-4.8.9-7.3,1.3-2.4.4-4.9.7-7.3,1.1-2.4.3-4.9.6-7.3.9-2.4.3-4.9.5-7.3.7s-4.9.4-7.4.5-4.9.2-7.4.3c-2.5,0-4.9,0-7.4,0h-7.4c-2.5,0-4.9,0-7.4-.3-2.5,0-4.9-.3-7.4-.5s-4.9-.4-7.3-.6c-2.4-.2-4.9-.5-7.3-.8s-4.9-.7-7.3-1c-2.4-.4-4.8-.8-7.3-1.2-2.4-.4-4.8-.9-7.2-1.4-.8-.3-1.5-.7-2.3-1.1-1.2-1.6-1.1-3.9-1.4-5.9,44.6,11.6,92.6,7.9,136.8-3h.3Z"/>
  <path class="st5" d="M470.3,244.9c3.9.2,7.1,1.2,10.7,2.6-7.2,15-14,30.4-20.7,45.6-3.1,6.9-5.7,14.4-9.2,21.1-.5,1-.8,1.6-1.9,2.1l.2-.6-1.1.6h0l-9.8,1.7c3.9-12.5,9.6-24.5,14.8-36.4,5.3-12.2,10.2-25.2,17-36.6h0Z"/>
  <path class="st10" d="M210.5,239.9c25.3,7.1,44.9,15.3,68.3,27.1.7,2.1,2.7,7,1.8,9h-1c-15.4-4.9-30.7-10.4-46-15.5-8.6-2.9-17.2-5.3-25.8-8.2.4-4.3,1.2-8.3,2.7-12.4h0Z"/>
  <path class="st7" d="M172.5,148c1.9,1.7,4.1,3.1,6.3,4.3,18.1,9.9,40.9,8.9,60.1,3.2.9,3.4,3,8.6,2.4,12-.2.9-.9,1-1.6,1.4-6.5,2.6-12.9,5.1-19.8,6.3-11.6,2.1-21.8,1.2-31.5-5.7-7.4-5.3-14.2-12.2-15.8-21.5h0Z"/>
  <path class="st7" d="M253.6,119.4c1.6,1.5,3.5,3.1,4.4,5.1,1.3,2.9.4,6.1-.6,8.9-2.9,7.8-8.5,13.6-16.1,17.1-17.6,8-39.1,7.5-57,.8-4.1-1.6-7.8-3.9-11.4-6.4,13.2,2.9,25.1,3.4,38.4.7,17-3.5,32.5-11.4,42.3-26.2h0Z"/>
  <path class="st7" d="M172.1,157.4c1.8,1.9,3.1,4.3,4.8,6.3,6.7,7.8,14.6,12.6,24.4,15.4,4.8,15.6,11.9,33.9,24.4,44.8-10.8.3-21.3-4.8-29.1-11.9-17.1-15.6-23.4-31.7-24.5-54.6h0Z"/>
  <path class="st4" d="M203.4,201.3c.5.2.9.3,1.3.7,2.3,1.9,6.1,9,6.4,11.8h-.6c-2.1-.4-3.6-2.8-4.7-4.4-1.6-2.4-2.9-5-2.3-7.9h0v-.2Z"/>
  <path class="st10" d="M448.4,245.2c6.2-.1,12.4-.2,18.6-.4-3.5,6.5-6.7,13.1-9.6,19.8-3.7,8.4-20.8,51.1-24.3,54.5-.8.8-1,.9-2.1.8-.7-1.5,3.5-7.4,4.2-9.5,1.3-3.9.8-8.2,2.2-12.2,4.1-11.9,9.5-24,14.5-35.5,1.7-3.9,3.6-7.7,5.2-11.8-8.2-.5-74.7-.3-78.2,1.2-1.8.8-17.6,42.7-19.8,48.4l-14.2,35.9c-3.1,7.9-6.5,16-8.6,24.3,4.9.2,18.9-.4,22.3.7l.3.8c-1.7.4-3.9,0-5.6.2-8,.4-16,1-24.1,1,10.4-27.5,21.1-54.9,32.1-82.1,4.6-11.4,8.8-24.7,14.8-35.4l72.3-.8h0Z"/>
  <path class="st10" d="M554.7,805.2c7.5,0,22.1-1.2,28.8.7l-.3.3c2,9.3.9,20.3.9,29.9l.3,44.3h-36c0-8.8-1.2-70.8,1-74.2,1.6-1,3.4-.9,5.2-.9h0Z"/>
  <path class="st10" d="M432.9,305.5c.4,3.2-2.9,7.6-4.2,10.5-.9,2-1.9,4-1,6.2,3.8,2.4,17.4-1.6,21.8-2.5-1.8,3.5-3.7,7-5.3,10.6-2.2,4.9-3.7,11.3-7,15.5-5.2,6.5-15.1,8.8-21.7,13.7-4.4,3.3-8.5,7.3-12.6,11-8.4,7.5-16.6,15.2-25.1,22.5-2.3,1.8-4.6,3.9-6.8,5.8-4.4-10.8-10-21.3-14-32.2,10.2-6.9,22.2-11.6,33.3-16.7,5.9-2.8,12.1-5.4,17.2-9.6,0-.8,0-1.6.1-2.4,1.1-15.7,14.8-23.1,25.4-32.3h0Z"/>
  <path class="st10" d="M343.7,919.9c3.8,0,7.4,1.6,10.9,2.9-1.5,1.1-4.1,2.6-5,4.2-.4.7,0,1,.2,1.7.4.2.8.4,1.2.5,8.6,2.2,27.3,12.3,34.1,11.6,2-1,3.1-2.9,4.4-4.7,4.3.5,8.5,1.7,12.7,2.6,11.9,2.3,22.5,3.6,33,9.9-14.2,4.3-28.6,6.2-43.3,7.9-30.7,2.8-61.2,1.9-91.3-5.3.3-5.5,2.2-24.3,5.5-27.8,4.4-4.5,13,7.6,23.6,6.3,6.1-.8,10.2-5.1,13.7-9.7h.3Z"/>
  <path class="st10" d="M135.9,902.8c6.2,4.8,9.9,12.2,18.2,14,8.7,1.8,15.7-4,22.4-8.5,4,3.5,7.3,7.6,11.8,10.6-1.9,1.2-3.6,2.5-5.4,3.8,4.7,4.4,9.8,8.6,15,12.5,4.8,3.6,10.1,6.4,14.1,11,1.4-2.5,2.9-4.9,4.4-7.3,11.6,2.3,22.9,6.6,32.4,13.7l.2.5-.4.6c-7.5,1.8-16.2,2-23.8,2.6-38.6,2.9-69.9-3-103.5-22.5,3.1-11.3,6.9-22.1,14.7-31.1h0Z"/>
  <path class="st10" d="M261,136.5c2,2.2,6,14.3,7.4,17.7-2.8.6-5.5,1.3-8,2.5-2.4,1.2-5.9,3.3-6.6,6.1-.2.8,0,.9.4,1.5.8.3,2.1.3,2.9-.2s1.8-2.3,2.5-3c2.2-2,7-2.9,9.9-3.5,6.2,11,9.1,13.9,19.7,20.8-2.9,3.4-5.3,5-9.4,6.7,2.7,5.4,4.8,10.9,6.3,16.8.9,3.6,1.8,8.1-.4,11.4-4,6-13.5,3.5-19.4,4.9-2.3.5-4.3,1.6-5.5,3.7-2.4,4-1.2,9.4-.2,13.7-1.8,6.6-4,9.1-4.6,16.6-6.7-3.6-14.3-6-21.5-8.7-7-2.4-14.2-4.3-21.3-6.4.6-3.3,1-6.8,1.4-10.1,1.6.4,3.2.8,4.8.9,6.4.5,21.5-3.9,26.1-8,1.8.5,3.8,1.2,5.8,1.3,1.2,0,2.3,0,3.2-.8-.9-1.3-2.4-2-3.8-2.8v-.5c.7-.5,1.4-1,2.1-1.6.7-.6.5-.7.6-1.6l-.7-.9c-.9-.2-1.2-.2-2.2.2-.9.3-1.8.7-2.8.9-5.3,1-14.8-1.1-19.2-4.1-2.9-1.9-5-4.6-5.4-8.1-.4-2.6.2-5.4,1.8-7.5,6.7-8.4,13.7,2.5,19.3,2q.5-.4.9-1.1c1.9-3.5.1-25-.5-29.9-.5-3.7-1.4-7.3-2.3-10.9,8.1-4.7,14.1-9.9,18.8-18h0Z"/>
  <path class="st4" d="M263.5,194.8c.6,0,1.1.2,1.6.4,3,1.3,6.4,1.8,9.2,3.4l.3,1.9c-.7,0-1.3.1-2,.2-2.7.1-6-.2-8-2.3-1.1-1.1-1-2.2-1.1-3.6h0Z"/>
  <path class="st4" d="M264.9,167.8c.9.1,1.8.2,2.6.7,1.1.7,2,2.3,2.1,3.6.2,1.9,0,3.6-1.3,5.1-.6-.1-1.3-.2-1.9-.4-1.5-.7-2.6-2-3-3.6-.4-2.1.3-3.7,1.4-5.4h0Z"/>
  <path class="st10" d="M681.9,759c8.9-.9,26.5-.6,35.7,0,.6,5.9.4,11.9.4,17.8v28.2c0,25,.5,50.2,0,75.2h-36.3v-79.7c0-13.6-1.1-28,.3-41.5h0Z"/>
  <path class="st10" d="M615,750.6c5.6-.6,31.5-1.3,35.4.7.3.9.5,1.6.6,2.6.5,8.9,0,18,0,26.9v82.7c0,5.4.6,11.5-.3,16.8h-36.1v-89.6c0-10.1-1.2-31.1.4-40.2h0Z"/>
  <path class="st10" d="M438.3,254.2h13.7c-4.1,9.5-8.1,19.1-12,28.7-2.4,5.7-4.5,12.4-7.8,17.5-2.4,3.7-5.5,6.2-9,8.8-12.4,9.2-16.1,14.7-19.2,29.9-7.9,4.5-28.5,14.9-36.8,17.3l-.9.3c-3.5,1-6.9.9-10.5.9-5.1.1-10.3.2-15.4.2,4.5-13.6,10.3-27,15.6-40.3,8.2-21,16.6-42,25.1-63l57.4-.3h-.2Z"/>
  <path d="M187.2,883.7c13.5.5,27,.3,40.5.3h72.1c1.1,5.7,1.7,15.7,3.9,20.7.4,1,1.6,1.9,2.4,2.6l.5.4c.7,2.9.5,5.9.5,8.9-7.5,8.9-8.3,21.7-9.6,32.8l-.4.3c-4.9.9-10.9.3-16,.2-10.5-.2-21.2-.2-31.7-1-12-9.9-26.5-9.5-39.1-17-8.2-4.8-15.3-11.7-22.1-18.3-2.8-2.8-5.6-5.9-8.8-8.2-.1,0-.2-.2-.4-.3,2.2-7.3,5.3-14.4,8.1-21.5h.1Z"/>
  <path class="st10" d="M750.7,695.5c11.7-.7,24.1-.6,35.7,0,.8,9.2.3,18.9.4,28.2v53c0,0,0,66.5,0,66.5,0,11.7.5,23.5,0,35.2,0,.6-.2,1-.5,1.5-12.1,0-24.2,0-36.4,0-.6-17,0-34,0-51v-110.4c0-7.4-.8-15.8.7-23.1h0Z"/>
  <path class="st10" d="M817.7,638.5c11.8-.5,23.9-.3,35.7,0,.5,10.9.3,22,.3,33v54.9c.2,51.3.2,102.5,0,153.8-12,.3-24,.2-36,0v-155.5c0-28.7-.5-57.5,0-86.2h0Z"/>
  <path class="st10" d="M886.3,605.6c6.7,0,28.1-1.3,33,1,.8,2.3.7,5.2.7,7.7v238.3c0,8.7.9,18.6-.2,27.2l-.8.6h-33.7c-1.1-57.9-.5-116-.2-174l.2-63.1c0-11.1-.3-22.2,0-33.3,0-1.6,0-3.1,1-4.5h0Z"/>
  <path d="M208.8,552c1.3-.8,1.8-1.2,3.3-1,2.9,4.4,5.7,8.8,8.4,13.3s5.3,9.1,7.7,13.7c2.5,4.6,4.8,9.4,7,14.1,2.2,4.8,4.3,9.6,6.3,14.4,6.3,15.2,12.3,30.8,17.5,46.4,2.7,8,4.6,16.7,7.8,24.5.4.9,1,1.7,1.6,2.4,10.9,1.9,20.6,7.2,31.3,10,3.6.9,7.4,0,10.8,1.2l.4.7c-.5,1.1-.6,1.4-1.8,1.8-7.8,2.6-28.4-7.9-36.4-8.9-1.4-.2-2.6.2-3.9.7-.9.6-1.5,1.1-2.1,2-1.4,8.4,2.9,28.6,4.4,38,3.6,22.6,7.4,45.2,11.5,67.8,5.5,29,11.8,57.8,16.2,87-36.6.3-73.4.8-110,0,4.5-12,9.4-23.8,13.9-35.8,6-15.9,11.6-32,18.4-47.7,15,7.7,32.4,11.4,49.1,13.1,2.7.3,5.7.8,8.4.6,1.6,0,2.6-.8,3.6-2l-.2-1c-2.3-1.4-15.8-1.7-19.8-2.3-14.1-2.2-27-5.7-40-11.6,10.2-24.9,20-49.9,29.5-75,4.5-11.8,8.2-24.2,13.4-35.6-5.4-11.1-8.1-25.2-12.4-37-11.8-32.9-25.1-64.4-43.9-93.9h0Z"/>
  <path class="st10" d="M254.3,283.7c5.4-.4,11.7,1.3,16.6,3.5,6.4,2.9,12.3,7.3,16.8,12.7,8.5,10.3,14.4,26.2,20,38.5,4,8.8,8.4,17.6,11.8,26.7-6.6,5.3-15.5,13.4-17.5,22l.4.5c6.2-4,12.3-18,19.4-19.4,1.8,1.9-14,24.2-13.2,31.9l.6.4c1.3-.5,2.2-1.4,2.8-2.6,5.5-10.5,8.6-19.9,15.4-30.3,5.6,0,11.2-.3,16.8-.6,3,5.6,5,11.8,7.3,17.8,3.6,9.1,7.1,18.2,10.6,27.4-16.6,10.6-37,20.9-56.6,23.9-9.3,1.4-17.3.5-25-5.2-6.1-4.5-11.4-10.6-15.5-17-12.7-19.5-30.7-66-34-88.9-1.6-11-.5-24.1,6.6-33.2,4.4-5.6,9.8-7.4,16.6-8.1h.1Z"/>
  <path class="st10" d="M207.1,255.8c11.1,2.7,22.2,6.8,33.1,10.4,14.1,4.7,28.6,8.9,42.2,14.9,2,4.4,4,8.9,5.8,13.4-4.3-3.5-8.9-6.6-13.9-9.2-8.8-4.5-19-6.8-28.6-3.5-6.6,2.3-11.3,7.6-14.4,13.8-9.6,19.6-1.2,43.3,5.3,62.5,8.3,24.4,24.1,67.8,48.6,79.3,14.3,6.7,33.3-.8,47.1-5.6,1.1,7.1,6.2,51.7,5.5,56-.1.8-1.3,1.3-2,1.8-9.8,6-19.6,12-30,17-37.1,17.6-79.5,22.5-120.1,17.6-9.4-1.2-19.2-2.5-28.2-5.7,1.5-14,3.6-28,5.4-42l5.7-47c7.2-55.8,14.9-122.4,38.3-173.8h.2Z"/>
  <path class="st4" d="M246.7,426.3l1.5.9c.5,1.1.5,1,0,2.1-1.2,3-4.1,5.9-6.2,8.3-10,11.6-25,25-39.4,30.9-.7,0-.9-.2-1.5-.6l-.2-1c.7-1.1,18.9-12.9,22.5-15.8,9.1-7.3,16.1-15.7,23.3-24.7h0Z"/>
  <path class="st5" d="M310.7,525.9c5.9-1.2,11.7-3.4,17.6-4.6.6,4.1.9,8.4,1.6,12.4.4,11.7,2.4,23.4,3.6,35,2.3,22.3,4.4,44.6,6.3,66.9.9,11.3,2.2,22.7,2.3,34.1-.2.9-.3,1.7-.2,2.6,0,2.7-.5,5.7-.9,8.4l2,139c.3,13.9.5,27.8.5,41.8s-.5,17.4.3,25.8l-2.3.7c-.6.4-.8.5-1.3.8-8.9,4.8-26.5,3.5-35.9.5-5.1-20.5-8.1-41.9-11.9-62.7-5.1-27.2-10.8-54.1-15-81.4-2.1-13.5-4.5-27.1-6.4-40.7-.6-4.7-.9-15.3-2.1-18.9,1.3-.5,2.5-.9,3.9-.7,8,1,28.6,11.5,36.4,8.9,1.3-.4,1.3-.7,1.8-1.8l-.4-.7c-3.4-1.2-7.2-.3-10.8-1.2-10.7-2.8-20.4-8.1-31.3-10-.6-.8-1.2-1.5-1.6-2.4-3.2-7.8-5.1-16.5-7.8-24.5-5.2-15.6-11.2-31.2-17.5-46.4-2-4.9-4.1-9.7-6.3-14.4-2.2-4.8-4.6-9.5-7-14.1-2.5-4.6-5-9.2-7.7-13.7s-5.5-9-8.4-13.3c-1.6-.2-2,.2-3.3,1-.9.4-1.2.6-1.9,1.3,0,1,.2,1.6.6,2.5,1.5,2.9,3.9,5.2,5.5,8,4.8,8.2,9.2,16.8,13.4,25.3,8.6,17.7,16,36.3,22.6,54.9,4.5,12.6,8.5,25.5,13.1,38.1-3.8,12.6-9.2,25.1-14.1,37.3l-15.9,40.9-24.3,61.6c-7.6,19.7-14.9,39.3-23.1,58.8-13.6-.3-27.1-5.1-38.6-12.1,1.4-10,5.1-22.7,7.3-32.8,5.1-23.3,9.9-46.7,14.5-70.2,5.4-28.6,11-57.6,14.3-86.6,1.8-15.7,2.3-31.5,3.2-47.3,1.8-30.5,2.9-61.1,3.2-91.7,39.1,10.5,84.3-2.7,122.1-13.9h0v-.5Z"/>
  <path class="st4" d="M212.1,551c1.3-.3,1.8-.4,3,.4,3.2,2.2,5.8,7.4,7.8,10.7,17.3,29.2,32.1,68.5,42.3,100.7,1.5,4.6,3.9,10.2,4.2,15,0,.7,0,.9-.1,1.5l-.8.6c-.6-.8-1.2-1.5-1.6-2.4-3.2-7.8-5.1-16.5-7.8-24.5-5.2-15.6-11.2-31.2-17.5-46.4-2-4.9-4.1-9.7-6.3-14.4-2.2-4.8-4.6-9.5-7-14.1-2.5-4.6-5-9.2-7.7-13.7s-5.5-9-8.4-13.3h-.1Z"/>
  <path d="M341.5,887.9c-1.9-4-1.8-132.6-2-148.1-.4-23.2-1-46.5-2.2-69.6-.7-14.1-2.5-28.3-3.7-42.4-1.5-17.3-2.7-34.6-5-51.8-1-7.1-2.1-14.2-3.4-21.3-.6-3.1-1.6-6.1-1.9-9.2-.2-1.7-.1-3.9,1-5.3l.7.4c2.4,6.2,3.1,14.2,4.2,20.8,5.5,31.8,7.5,64.4,10.1,96.6.6,7.6.9,15.3,1.7,22.9l2,139c.3,13.9.5,27.8.5,41.8s-.5,17.4.3,25.8l-2.3.7h0v-.3Z"/>
  <path d="M71.1,63.3c63-.9,126,0,189,0h133.2c27.9-.2,55.7,0,83.5.2-2.1,1.5-4.3,3.1-6.1,4.9-3.2,3-5.4,6.7-6.1,11-1.1,6.6-.7,13.6-.7,20.3v30.1c.2,37.2.1,74.5-.3,111.8l-56.7,1c-10.8.1-22.6-.8-33.3.7-4.7,8-7.8,18.1-11.4,26.8-9.1,22.5-17.9,45.1-26.6,67.8-8.3-7.1-34.3-25.9-39.3-32.7-3.6-4.9-5.5-11.9-7.6-17.5-3.2-8.4-4.3-18.1-8-26.1-4.3-9.3-13.8-17.9-17.2-27.3-1.1-3-1.6-8,.2-10.8,2.1-3.2,14.9-2,19.3-3.5,2.5-.9,4.6-2.3,5.7-4.8,3.7-8.1-1.5-20.3-4.4-28,2.2-1.7,6.6-4.6,7.5-7.2.5-1.4.5-2.4-.5-3.6-3.6-4.5-10.3-5.7-15.3-13-3.2-4.7-10-21.5-11.5-27-1.1-4.2-.9-8.7-2.9-12.7-2.9-5.9-9.1-9.3-15.1-11.2-12.3-3.9-26.8-3.1-38.3,2.9-8.7,4.6-15.3,11.8-23.1,17.7-5.7,4.3-13,7.4-17.6,12.8-3.1,3.7-5.2,8.8-6.6,13.4-3.6,12.2-3,26.7,3.2,38,8,14.7,22.9,19.5,38,23.8,2.9,1.2,5.6,2.8,8.3,4.3.2,3.6.3,7-.3,10.5-5.5,5.7-4.5,12.8-7.1,19.9-4.9,13.7-10.2,27.1-14.2,41.1-14.9,52-21.1,108.1-27.4,161.8-2.4,20.8-6.1,41.6-7.4,62.6,10,3.8,20.7,5.1,31.2,6.7.5,18.3-.4,36.6-.9,54.9-.6,19.9-1.5,39.8-2.7,59.7-.6,11.5-1,23.1-2.2,34.5-1.4,13.4-3.8,26.6-6.1,39.9-2.4,14.8-5.1,29.5-8,44.2-39.5-29.4-72-87.3-85.5-134.1-1.6-5.4-3-10.8-4.3-16.3s-2.4-11-3.3-16.5-1.7-11.1-2.4-16.6c-.6-5.6-1.1-11.2-1.4-16.8-.8-16-.2-32.2-.2-48.2V74.3c0-2.6-.4-5.3-.2-8,0-.9,0-1.7.7-2.5.4-.6,1.4-.5,2.1-.6h.3Z"/>
  <path class="st4" d="M397.9,77c3.6-.2,7.7-.8,11.3.2,1,.9.9,1,1.1,2.4-.3,0-.7.2-1,.2-2.6.4-8.5,1.3-10.7-.4-.7-.5-.5-1.6-.7-2.4h0Z"/>
  <path class="st4" d="M87.7,352.7c.8.1,1.4.3,2.1.7.4.8.5,1.5.6,2.4.4,3.6,1,20.5-.8,22.7-.2,0-.4,0-.5-.1-.8-.3-1.4-.4-1.7-1.2-1.3-3.4-1.1-21.3.3-24.5h0Z"/>
  <path class="st4" d="M87.7,76.6h211c0,0,59.3,0,59.3,0,6.8,0,18.5-.9,24.6,0,1.3.2,1.9.3,2.6,1.4l-.4,1c-1.5.8-3.1,1-4.9,1.1-8.4.3-17,0-25.4,0h-223.6c-13.4,0-26.9,0-40.3.2v228.2c0,7.9,1.2,17.6-.5,25.2l-.9.3c-1.3-.4-1.4-.5-2-1.9-.8-2-.2-178.2-.3-190.5,0-8-1.4-60.6.9-65.1h-.1Z"/>
  <path class="st4" d="M500.6,90.7h371.1c16.5,0,33.4-.7,49.9,0,2.1,0,3.9.7,5.7,1.9,3.2,2.3,3.8,4.8,4.4,8.6,1.3,8.6.3,22.1.3,31.2v195.4c0,22.3.6,44.7,0,67,0,2.9,0,5.6-2,7.9-2.2,2.7-5.6,3.6-9,3.9l-303.7-.5-83.3.2c-9.2,0-29.8,1.4-37.9-.3-3-.6-4.8-3.6-6.4-6-1-16.1-.1-32.7-.1-48.8V119.7c0-5.7-.4-11.6,0-17.3.1-2.3.7-4.5,2.1-6.4,2.3-3.1,5.4-4.5,9.1-5.1h0l-.2-.2Z"/>
  <path class="st9" d="M499.5,94.2c36-.8,72.3,0,108.3,0h182.4c0,0,87.9-.2,87.9-.2,11.9,0,36.6-1.3,47.1,1.3,1.4,1.1,2.2,2.3,2.5,4,1.6,6.9.6,17.5.6,24.9v51.7l.2,217.7c0,1.7,0,4-.5,5.6-.2.5-.6,1.2-.9,1.7-1.3,1.7-3.4,2-5.4,2.4-22.4.4-44.9-.2-67.3-.2l-174.5-.3-125.7.2c-16.8,0-33.7.5-50.5.2-2.5,0-5.9,0-8.1-1.2s-1.9-2-2.3-3.1c-1.4-4.2-.4-38.9-.4-46.6v-128.1c.1,0,.1-85.6.1-85.6,0-11.5-.9-23.5-.1-34.9.1-2.1.6-4.8,1.8-6.6,1.2-1.8,2.7-2.4,4.7-2.8h.1Z"/>
  <path class="st11" d="M807.8,138.2l3,4.6-2.8,2-3-4.3c.8-1,1.7-1.5,2.8-2.2h0Z"/>
  <path class="st4" d="M885.5,165.5c-1.2-3-2.3-6.5-1-9.7.6-1.6,1.9-2.7,3.5-3.4,2.4-1,5.3-.8,7.6.3,2,.9,3.7,2.6,4.3,4.8.6,2.3,0,4.4-1.3,6.3-1.3,2.1-2.9,3.4-5.3,4-1.8.4-3.8.4-5.6.2-8.8,10.8-17.8,21.8-25.9,33.1,0,0-.2-.2-.3-.3-1.1-.7-1.8-1.2-2.7-2.2,9.3-10.8,17.5-22.5,26.8-33.2h0Z"/>
  <path class="st10" d="M891,154.9h.7c1.8.3,3.3.7,4.4,2.4.6,1.1.8,2.2.4,3.4-.6,2-2.1,3-3.8,3.9-2-.2-3.6-.3-4.9-2.1-.8-1.1-.9-2.3-.6-3.6.5-2.1,2.1-3.1,3.8-4.1h0Z"/>
  <path class="st8" d="M792.1,138.9c-.8-2.1-2.5-3.8-3.3-6-1-2.7-.6-6.4.7-9s3.8-4.5,6.6-5.3c.4,0,.8-.2,1.2-.3s.8,0,1.2-.2h2.4c.4,0,.8,0,1.2.2s.8.2,1.2.4c.4,0,.8.3,1.2.5s.7.4,1.1.6c2.6,1.6,4.5,4,5.1,7,.8,4.4-.9,7.9-3.2,11.5-1.1.7-2,1.2-2.8,2.2-3,.2-7.6-.6-10.2.6l-.9,1.5c-1.3-1.1-1.3-2.1-1.8-3.8h.3Z"/>
  <path class="st0" d="M808,144.8l2.8-2c4.5,6.6,35.4,52.7,39.1,55.3.2,0,.3-.1.4-.2,2.1-.9,4.4-1.3,6.6-.3.6.3,1.2.7,1.8,1.1.9.9,1.7,1.4,2.7,2.2,0,0,.2.2.3.3v.3c.2,1.3.5,2.5.6,3.8.2,2.3-.7,4.8-2.3,6.5-1.3,1.4-3,2.3-5,2.3s-4.4-1.1-5.9-2.8c-2.9-3.2-2.6-6.3-2.5-10.4-3.9-6.5-8.5-12.5-12.8-18.8-8.7-12.4-17.3-24.8-25.8-37.4h0Z"/>
  <path class="st10" d="M852.4,200.4c1.4,0,2.9,0,4.1.7,1.3.8,2.3,2.3,2.4,3.9,0,2.1-.8,3.5-2.2,5-2.1,0-4.1.2-5.7-1.4-.9-1-1.4-2-1.4-3.4,0-2.2,1.2-3.4,2.7-4.8h.1Z"/>
  <path class="st8" d="M529.1,178.6c8-.3,16-.1,24-.1s17.6-.3,26.3,0c2.3,0,5.3.2,6.8,2.2.7.9.8,2.2.5,3.3-.5,1.6-1.4,2.2-2.7,3-1.4.2-2.8.3-4.2.4-10.1.3-20.3,0-30.5,0s-13.1.6-19.3-.3c-1.3-.2-2-.5-3-1.4-.5-1-.7-1.6-.6-2.7.2-2.1,1-3.2,2.6-4.5h.1Z"/>
  <path class="st8" d="M528.9,123.6c7.2-.5,57-.8,59.5,1,1,.8,1.6,1.6,1.7,2.9.2,2.1-.7,3.7-1.9,5.3-9.1.8-18.7.3-27.9.3s-19.3.7-28.7,0c-1,0-2.2-.2-3-.9-1.1-.9-1.7-1.8-1.8-3.2-.3-2.1.9-3.9,2.1-5.5h0Z"/>
  <path class="st8" d="M530.6,142.7h83.4c6.9,0,21.2-1,27.3,0,1.8.3,3.2.9,4.2,2.5.2,1.3,0,2.1-.4,3.3-.8,1.8-1.7,2.3-3.4,3h-73c-7,0-14-.1-20.9,0-4.6,0-9.3.5-13.8.2-2.3-.1-5.1-.4-6.6-2.3-.7-.9-.7-2.2-.4-3.2.6-1.9,2-2.6,3.7-3.4h0Z"/>
  <path class="st8" d="M633.8,160.8c3.4-.1,6.7-.6,9.7,1.5,1.4.9,2,1.8,2.3,3.4-.2.8-.4,1.4-1,2.1-1.3,1.2-3.3,1.7-5,1.9-8.4,1-23.3.1-32.2.1-22.5-.2-45-.1-67.4.1-3.9.2-8.3.8-11.7-1.4-1.2-.8-1.7-1.6-2.1-3,.2-1.2.5-1.8,1.3-2.7,1.1-1.1,2.7-1.6,4.1-1.8,8.7-.8,21.2-.1,30.4-.2h71.6c0-.1,0,0,0,0Z"/>
  <path class="st4" d="M530.5,339.5c8.5-.2,21.7-1,29.7.2,2,.3,3.7.7,4.9,2.5,3.1,4.8,2.5,23.1,1.2,28.6-.8,3.2-2,4.3-4.7,6-6.8.5-25.4,1.4-31.4-.2-1.5-.4-2.2-1.2-2.9-2.5-2.6-4.7-2.9-25.2-1-30.6.8-2.3,2.2-3.1,4.3-4.1h0Z"/>
  <path class="st10" d="M530.6,343.1c6.3-.4,27.3-1.4,31.9,1.2.4.7.7,1.4.8,2.2.5,3,.5,20,0,23-.3,1.6-.9,2.6-1.9,3.9-5.5.3-28.3,1.4-31.7-1.4-1.2-2.8-1.4-19.3-1.3-23,0-2.7.3-4,2.3-5.9h0Z"/>
  <path class="st4" d="M743.5,236l6.1-.4c3.5-5.8,5.7-12.6,8.5-18.8,7.5-16.5,14.4-33.4,21.5-50.1,3.9-9.3,7.8-19,12.6-27.8.5,1.6.4,2.7,1.8,3.8-14.8,31.5-26.3,64.6-41.8,95.7l.2.4c1.4,2.6,2.2,5.1,1.3,8-.6,1.9-1.8,3.4-3.6,4.3-2,1-4.2.9-6.3,0-3.2-1.3-4.3-3.8-5.4-6.8.5-2.3,1.3-4.4,2.1-6.5-6-9-11.1-19.1-16.1-28.7-2.2-4.2-4.4-10-7.4-13.6-.9-1-1.2-.9-2.4-1-1.2.6-1.9,1.4-2.6,2.6-3.8,6.7-6.3,14.5-9.2,21.6-4.2,10.1-8.4,20.2-12.8,30.2-2.9,7-5.6,14.1-9,20.9,1.1,1.4,1.9,3.3,2,5.1v1.6c0,.3,0,.5-.2.8,0,.3,0,.5-.2.8,0,.2-.2.5-.3.7s-.3.5-.4.7c0,.2-.3.4-.5.6s-.3.4-.5.6c-1.6,1.6-3.9,2.5-6.1,2.4-1.9,0-3.7-.9-5-2.3-2.4-2.6-2.3-5.5-2.1-8.8-15.5-6.3-31.3-12-47.3-17.1-.2.4-.3.8-.5,1.2-1.2,2.6-2.5,5.1-5.4,6.1-3.1,1-6.2-.5-8.8-2-6.7,7-14.1,13.2-21.4,19.5-12.6,11-25.3,21.7-37.6,33,.4,3.4.2,7.8-2.2,10.6-1,1.2-2.2,1.9-3.8,1.9-2.3,0-4.5-1.4-6-3-1.7-1.9-2.8-4.6-2.6-7.2.2-1.6.9-3,2.2-4,3.5-2.5,6-1.7,9.7-.9,10.8-8.3,20.8-18.3,31.1-27.4l18.4-16.1c2.9-2.5,6.6-5.2,8.9-8.2,1.4-1.8,1.8-4.6,2.6-6.7.9-2.3,2.1-4.1,4.5-5,.9-.3,1.8-.6,2.6-.3,4.7,1.6,8.9,4.6,13.6,6.3,14.4,5.5,29.3,10.2,43.5,16.1,3-.9,6.1-1.5,9.1-2.1,4.8-6.8,11.1-24.2,14.5-32.7,5.5-13.7,11.1-27.5,17.4-40.9-.9-1-1.9-2-2.5-3.2-.9-2-1-4.2-.2-6.3.8-2,2.4-3.7,4.4-4.4,1.8-.7,3.7-.6,5.5.2,2,.9,4.1,3,4.9,5.1,1,3-.9,5.5-2.1,8.1,1.4,4.5,4.1,8.8,6.3,12.9,5.4,10.5,11.2,20.7,17.3,30.8h0l-.3-.3Z"/>
  <path class="st10" d="M536.8,312.4c1.8,0,3.9-.3,5.4.8.6.5,1.1,1.2,1.3,2,.3,2.1-.8,3.6-2,5.3-1.9.2-3.6.2-5.2-1.1-1-.8-1.5-1.8-1.4-3.1,0-1.6,1-2.7,2-3.9h0Z"/>
  <path class="st10" d="M713.5,181.4h.5c1.7.3,3.3.9,4.2,2.5.7,1.2.9,2.3.5,3.7-.5,1.5-1.8,2.1-3.1,2.9-1.6-.2-3.3-.3-4.5-1.6-.8-.8-1.3-2-1.1-3.2.3-2.1,1.9-3.3,3.5-4.4h0Z"/>
  <path class="st10" d="M744.6,239c1.7.2,3.6.4,5,1.6.9.7,1.6,1.9,1.5,3-.2,2.2-1.5,3.5-3.1,4.8-1.6,0-3,0-4.3-1.2-1.2-1.1-1.7-2.3-1.7-3.9s1.3-3.1,2.7-4.3h-.1Z"/>
  <path class="st10" d="M673.8,269.9c2,.4,3.6.6,4.9,2.3.8,1.1,1.2,2.3.9,3.6-.5,2-1.8,3-3.4,4-1.9-.2-3.4-.5-4.6-2.1-.9-1.1-1.1-2.2-.9-3.6.3-2,1.7-3.1,3.2-4.1h-.1Z"/>
  <path class="st10" d="M610.4,249.4c1.8,0,3.5,0,4.9,1.2,1,.8,1.5,1.9,1.4,3.2-.2,2.1-1.6,3.4-3,4.8-1.9,0-3.7.2-5.2-1.2-1-.9-1.3-1.8-1.2-3.1,0-2.3,1.6-3.5,3.2-4.9h-.1Z"/>
  <path class="st2" d="M667.7,321.8c6.7-.1,24.7-1.9,29.3,2,2,1.7,2.5,3.3,2.8,5.9.7,7.1.8,35.2-.3,41.7-.2,1.3-.6,2.1-1.5,3.1-2.1,2.3-5.1,2.4-8,2.6-9,0-18.1,0-27.1-.1-2.2-1.3-4.3-3-5.2-5.5-1.4-4-1-34.9-.5-40.2.2-1.9.4-4.7,1.5-6.3,2-2.8,5.9-2.8,9-3h0v-.2Z"/>
  <path class="st10" d="M683.7,325.2c3.6,0,7.6-.5,10.9.9,1.4,1.3,1.5,3.9,1.6,5.8.6,7.9,0,16.1,0,24.1,0,4.3.5,9.1,0,13.3,0,1.2-.4,2-1.2,2.9-5.3,2.6-17.1,1.3-23.2,1.2-2.4,0-5,.3-7.4-.1-1.1-.2-2.9-1-3.4-2-1.6-3.2-1.2-40.7.6-45.1,4.5-2.2,16.6-.9,22-.9h.1Z"/>
  <path class="st3" d="M729.4,294.1c6.3-.7,23.5-.9,29.5.3,2.5.5,4.2,1.4,5.6,3.7.9,1.5,1.2,2.9,1.4,4.5.7,7.1.8,64-.6,69.2-.7,2.5-2.4,3.7-4.5,5-7.1.6-20.1.9-27.1,0-2.7-.4-6.3-1.4-7.9-3.8-1.2-1.7-1.4-5.3-1.6-7.4-.8-10.7,0-22,0-32.8,0-7.5-1-27.3.8-33.8.7-2.5,2.5-3.7,4.6-5h-.2Z"/>
  <path class="st10" d="M729.2,297.5c7.4-.2,24.8-1.2,31.3.7,1.6,1.5,1.8,5.5,1.9,7.7.6,12.7,0,25.7,0,38.4,0,8.1.9,17.4-.3,25.4-.2,1.5-.9,2.3-1.9,3.4-5.5,1-25.8,1.3-30.9-.8-.4-.5-.7-1-.9-1.7-1.8-6.4-1.5-60.8-.6-69.6.2-1.4.5-2.3,1.2-3.5h.1Z"/>
  <path class="st4" d="M597,285.6c8,0,21.1-1.3,28.7.4,2.5.6,4.2,1.6,5.6,3.8.9,1.5,1.1,3.1,1.2,4.8.5,7.6.7,74.1-.5,77.6-.8,2.6-3.4,3.9-5.7,5-7.5.2-21.7,1.2-28.5-.5-2.6-.6-4.7-1.9-6-4.3-.7-1.5-.8-3.1-.9-4.7-.5-8.7-1-74.2.4-77.8.9-2.3,3.7-3.5,5.8-4.4h0Z"/>
  <path class="st10" d="M603.9,289.2c6,0,18.9-1.4,23.9,1.3v1.3c0,0,.3-.6.3-.6.4,2.2.6,4.4.7,6.6.5,11.6,0,23.4,0,35s.6,24,0,35.9c0,1.1,0,3-.8,3.7-1.7,1.6-5.2,1.2-7.4,1.2-6.7,0-18.9,1.4-24.9-.9v-.5c-1.6-2.3-1.6-6.8-1.6-9.6l-.2-45.1c0-8-.8-16.7.2-24.6,0-.9.2-1.8,1-2.5,2.1-1.8,6.2-1.3,8.8-1.3h0Z"/>
  <path class="st4" d="M863.3,233.2c8-.3,19.1-1.2,26.8,0,2.4.4,5.1,1.1,6.7,3.1.7,3.1,1.2,6,1.4,9.2.4,10.1,1,123.2-1.2,126.7-1.4,2.3-3.9,3.4-6.4,4.2-6.8-.2-26.4,1.3-31.4-2.1-1.9-1.3-2.9-3.4-3.2-5.6-.8-5.6-.3-11.9-.3-17.6v-82.4c0-9-.2-18.2,0-27.1,0-2.1.6-4.5,1.9-6.2,1.5-1.9,3.3-2.1,5.5-2.4h0v.2Z"/>
  <path class="st10" d="M861.7,236.5c6,0,28.1-1.4,32.3,1.4,1.7,7.9,1,16.5,1,24.6v30.8c0,0-.3,47.9-.3,47.9,0,8.8.3,17.6-.2,26.4,0,2.4-1.2,3.2-2.9,4.7-.2,0-.4,0-.6.1-4.6.9-27.8.9-31.1-1.4-.5-2.5-.7-5-.8-7.6-.6-26.4.2-53,0-79.4v-28.6c0-5-.5-10.4.2-15.3.2-1.7,1-2.5,2.2-3.7h0Z"/>
  <path class="st4" d="M793,193.6c6.6-.7,27.4-1.1,33.1.5,1.4.4,3.3,1.2,4,2.5,1.2,2.2,1.4,6.1,1.5,8.6.8,22.2,0,44.7,0,67v67.4c0,5.9,1,27.3-.5,31.8-.8,2.3-2.5,3.4-4.6,4.5-1.3.2-2.5.3-3.8.4-8,.4-27.3,1.8-32.9-3.4-1.3-3.3-1.4-7.3-1.5-10.8-.4-11.7,0-23.4,0-35.1.2-23.7.2-47.5.2-71.2l-.2-35.5c0-6.7-.9-14.4.4-20.9.6-3.1,2.1-4.1,4.6-5.8h-.2Z"/>
  <path class="st10" d="M793.7,197.1c8.8-.4,18-.4,26.8-.2,1.9,0,5.2-.1,6.6,1.3,2.3,10.9,1.2,33.5,1.2,45.3v84.9c-.2,7.8-.2,15.6,0,23.4,0,5.6.8,11.8,0,17.3-.3,1.8-.9,2.3-2.3,3.3-1.2.2-2.3.3-3.5.4-6.1.3-25.7,1.7-29.9-2.1-.5-1.8-.6-3.7-.7-5.5-.5-12.1,0-24.3,0-36.4v-105.3c0-7.3-.6-15,.2-22.3.2-1.9.7-2.7,2-4.1h-.1Z"/>
</svg>